# Blender v2.82 (sub 7) OBJ File: ''
# www.blender.org
v 0.000000 -0.000000 0.250000
v 0.587785 -0.809017 -0.000000
v 0.475528 -0.154508 -0.000000
v 0.951057 0.309017 0.000000
v 0.293893 0.404509 0.000000
v 0.000000 1.000000 0.000000
v -0.293893 0.404509 0.000000
v -0.951056 0.309017 0.000000
v -0.475528 -0.154508 -0.000000
v -0.587785 -0.809017 -0.000000
v 0.000000 -0.500000 -0.000000
v 0.000000 0.000000 -0.250000

vn 0.4848 0.0831 0.8707
vn 0.3433 -0.3522 0.8707
vn 0.0707 0.4867 0.8707
vn 0.4410 0.2177 0.8707
vn -0.4410 0.2177 0.8707
vn -0.0707 0.4867 0.8707
vn -0.3433 -0.3522 0.8707
vn -0.4848 0.0831 0.8707
vn 0.2289 -0.4353 0.8707
vn -0.2289 -0.4353 0.8707
vn 0.4848 0.0831 -0.8707
vn 0.3433 -0.3522 -0.8707
vn 0.0707 0.4867 -0.8707
vn 0.4410 0.2177 -0.8707
vn -0.4410 0.2177 -0.8707
vn -0.0707 0.4867 -0.8707
vn -0.3433 -0.3522 -0.8707
vn -0.4848 0.0831 -0.8707
vn 0.2289 -0.4353 -0.8707
vn -0.2289 -0.4353 -0.8707

f 1//1 2//1 3//1
f 1//2 3//2 4//2
f 1//3 4//3 5//3
f 1//4 5//4 6//4
f 1//5 6//5 7//5
f 1//6 7//6 8//6
f 1//7 8//7 9//7
f 1//8 9//8 10//8
f 1//9 10//9 11//9
f 1//10 11//10 2//10
f 12//11 3//11 2//11
f 12//12 4//12 3//12
f 12//13 5//13 4//13
f 12//14 6//14 5//14
f 12//15 7//15 6//15
f 12//16 8//16 7//16
f 12//17 9//17 8//17
f 12//18 10//18 9//18
f 12//19 11//19 10//19
f 12//20 2//20 11//20
