# Blender v2.82 (sub 7) OBJ File: ''
# www.blender.org
mtllib snowman.mtl
o Cube_Cube.001
v -1.000000 -1.000000 1.000000
v -0.792488 1.000000 0.792488
v -1.000000 -1.000000 -1.000000
v -0.792488 1.000000 -0.792488
v 1.000000 -1.000000 1.000000
v 0.792488 1.000000 0.792488
v 1.000000 -1.000000 -1.000000
v 0.792488 1.000000 -0.792488
v -1.000000 1.000000 1.000000
v -1.000000 1.000000 -1.000000
v 1.000000 1.000000 -1.000000
v 1.000000 1.000000 1.000000
v -0.628738 2.379229 0.628738
v -0.628738 2.379229 -0.628738
v 0.628738 2.379229 0.628738
v 0.628738 2.379229 -0.628738
v -0.792488 2.379229 0.792488
v -0.792488 2.379229 -0.792488
v 0.792488 2.379229 -0.792488
v 0.792488 2.379229 0.792488
v -0.840819 3.518982 0.840819
v -0.840819 3.518982 -0.840819
v 0.840819 3.518982 0.840819
v 0.840819 3.518982 -0.840819
v -0.628738 3.518982 0.628738
v -0.628738 3.518982 -0.628738
v 0.628738 3.518982 -0.628738
v 0.628738 3.518982 0.628738
v -0.515854 3.706672 0.515854
v -0.515854 3.706672 -0.515854
v 0.515854 3.706672 0.515854
v 0.515854 3.706672 -0.515854
v -0.840819 3.706672 0.840819
v -0.840819 3.706672 -0.840819
v 0.840819 3.706672 -0.840819
v 0.840819 3.706672 0.840819
v -0.515854 4.612959 0.515854
v -0.515854 4.612959 -0.515854
v 0.515854 4.612959 0.515854
v 0.515854 4.612959 -0.515854
vt 0.625000 0.000000
vt 0.375000 0.250000
vt 0.375000 0.000000
vt 0.625000 0.250000
vt 0.375000 0.500000
vt 0.625000 0.500000
vt 0.375000 0.750000
vt 0.625000 0.750000
vt 0.375000 1.000000
vt 0.125000 0.750000
vt 0.125000 0.500000
vt 0.849061 0.525939
vt 0.650939 0.525939
vt 0.650939 0.525939
vt 0.875000 0.750000
vt 0.849061 0.724061
vt 0.875000 0.500000
vt 0.650939 0.724061
vt 0.828592 0.703592
vt 0.828592 0.546408
vt 0.828592 0.546408
vt 0.650939 0.724061
vt 0.849061 0.525939
vt 0.849061 0.724061
vt 0.671408 0.546408
vt 0.671408 0.703592
vt 0.671408 0.546408
vt 0.671408 0.703592
vt 0.671408 0.703592
vt 0.828592 0.703592
vt 0.671408 0.546408
vt 0.671408 0.703592
vt 0.828592 0.546408
vt 0.828592 0.703592
vt 0.798217 0.576783
vt 0.701783 0.576783
vt 0.701783 0.576783
vt 0.828592 0.546408
vt 0.828592 0.703592
vt 0.671408 0.546408
vt 0.798217 0.673217
vt 0.701783 0.673217
vt 0.798217 0.576783
vt 0.701783 0.673217
vt 0.798217 0.673217
vt 0.625000 1.000000
vn -1.0000 0.0000 0.0000
vn 0.0000 0.0000 -1.0000
vn 1.0000 0.0000 0.0000
vn 0.0000 0.0000 1.0000
vn 0.0000 -1.0000 0.0000
vn 0.0000 1.0000 0.0000
usemtl None
s off
f 9/1/1 3/2/1 1/3/1
f 10/4/2 7/5/2 3/2/2
f 11/6/3 5/7/3 7/5/3
f 12/8/4 1/9/4 5/7/4
f 7/5/5 1/10/5 3/11/5
f 4/12/2 19/13/2 8/14/2
f 4/12/6 9/15/6 2/16/6
f 8/14/6 10/17/6 4/12/6
f 6/18/6 11/6/6 8/14/6
f 2/16/6 12/8/6 6/18/6
f 13/19/1 26/20/1 14/21/1
f 8/14/3 20/22/3 6/18/3
f 2/16/1 18/23/1 4/12/1
f 6/18/4 17/24/4 2/16/4
f 14/21/6 17/24/6 13/19/6
f 16/25/6 18/23/6 14/21/6
f 15/26/6 19/13/6 16/25/6
f 13/19/6 20/22/6 15/26/6
f 24/27/3 36/28/3 23/29/3
f 15/26/4 25/30/4 13/19/4
f 14/21/2 27/31/2 16/25/2
f 16/25/3 28/32/3 15/26/3
f 22/33/5 25/30/5 21/34/5
f 24/27/5 26/20/5 22/33/5
f 23/29/5 27/31/5 24/27/5
f 21/34/5 28/32/5 23/29/5
f 30/35/2 40/36/2 32/37/2
f 21/34/1 34/38/1 22/33/1
f 23/29/4 33/39/4 21/34/4
f 22/33/2 35/40/2 24/27/2
f 30/35/6 33/39/6 29/41/6
f 32/37/6 34/38/6 30/35/6
f 31/42/6 35/40/6 32/37/6
f 29/41/6 36/28/6 31/42/6
f 38/43/6 39/44/6 40/36/6
f 32/37/3 39/44/3 31/42/3
f 29/41/1 38/43/1 30/35/1
f 31/42/4 37/45/4 29/41/4
f 9/1/1 10/4/1 3/2/1
f 10/4/2 11/6/2 7/5/2
f 11/6/3 12/8/3 5/7/3
f 12/8/4 9/46/4 1/9/4
f 7/5/5 5/7/5 1/10/5
f 4/12/2 18/23/2 19/13/2
f 4/12/6 10/17/6 9/15/6
f 8/14/6 11/6/6 10/17/6
f 6/18/6 12/8/6 11/6/6
f 2/16/6 9/15/6 12/8/6
f 13/19/1 25/30/1 26/20/1
f 8/14/3 19/13/3 20/22/3
f 2/16/1 17/24/1 18/23/1
f 6/18/4 20/22/4 17/24/4
f 14/21/6 18/23/6 17/24/6
f 16/25/6 19/13/6 18/23/6
f 15/26/6 20/22/6 19/13/6
f 13/19/6 17/24/6 20/22/6
f 24/27/3 35/40/3 36/28/3
f 15/26/4 28/32/4 25/30/4
f 14/21/2 26/20/2 27/31/2
f 16/25/3 27/31/3 28/32/3
f 22/33/5 26/20/5 25/30/5
f 24/27/5 27/31/5 26/20/5
f 23/29/5 28/32/5 27/31/5
f 21/34/5 25/30/5 28/32/5
f 30/35/2 38/43/2 40/36/2
f 21/34/1 33/39/1 34/38/1
f 23/29/4 36/28/4 33/39/4
f 22/33/2 34/38/2 35/40/2
f 30/35/6 34/38/6 33/39/6
f 32/37/6 35/40/6 34/38/6
f 31/42/6 36/28/6 35/40/6
f 29/41/6 33/39/6 36/28/6
f 38/43/6 37/45/6 39/44/6
f 32/37/3 40/36/3 39/44/3
f 29/41/1 37/45/1 38/43/1
f 31/42/4 39/44/4 37/45/4
